<svg width="106" height="24" viewBox="0 0 106 24" fill="none" xmlns="http://www.w3.org/2000/svg">
<path id="name" fill-rule="evenodd" clip-rule="evenodd" d="M98.4102 1.70694L100.005 -0.000366211H105.889L104.984 0.968529C104.767 1.20184 104.505 1.38774 104.214 1.51475C103.923 1.64176 103.609 1.70717 103.292 1.70694H98.4102ZM75.8936 13.3043L73.5373 10.9226L71.181 13.3L73.3977 15.5409C72.266 14.904 70.992 14.569 69.6962 14.5677H65.525C65.4719 14.5689 65.4204 14.549 65.3816 14.5122C65.3429 14.4755 65.3199 14.425 65.3177 14.3714V2.63793L61.9842 6.00132V14.3714C61.9842 14.84 62.0757 15.304 62.2534 15.7369C62.4312 16.1698 62.6917 16.5632 63.0201 16.8945C63.3485 17.2258 63.7383 17.4887 64.1674 17.668C64.5965 17.8473 65.0564 17.9396 65.5208 17.9396H70.5972C70.8606 17.939 71.1206 18.0004 71.3563 18.1189C71.5921 18.2375 71.7971 18.4099 71.9552 18.6225L73.6685 20.889C73.7103 20.9431 73.7631 20.9878 73.8232 21.0199C73.8834 21.052 73.9497 21.0709 74.0176 21.0753C74.0855 21.0797 74.1536 21.0696 74.2174 21.0456C74.2812 21.0216 74.3392 20.9842 74.3876 20.9359L76.7524 18.55L75.2041 16.9835C76.3352 17.6262 77.6117 17.9629 78.9099 17.961H97.1977V14.5976H78.9056C78.3436 14.5947 77.7878 14.4789 77.2706 14.2568C76.7535 14.0347 76.2853 13.7109 75.8936 13.3043ZM57.0124 14.3713C57.0124 14.4268 56.9906 14.48 56.9517 14.5192C56.9128 14.5584 56.8601 14.5805 56.8051 14.5805H50.7684C50.7412 14.5805 50.7142 14.575 50.6891 14.5645C50.6639 14.554 50.6411 14.5386 50.6218 14.5192C50.6026 14.4998 50.5873 14.4767 50.5769 14.4513C50.5665 14.426 50.5611 14.3988 50.5611 14.3713V9.71038L47.2318 13.0908V14.3713C47.2318 15.3177 47.6044 16.2253 48.2677 16.8944C48.9309 17.5636 49.8304 17.9396 50.7684 17.9396H56.8051C57.7431 17.9396 58.6426 17.5636 59.3058 16.8944C59.9691 16.2253 60.3417 15.3177 60.3417 14.3713V6.92747L57.0124 10.2866V14.3713ZM54.3784 9.58202C54.3639 9.57586 54.3507 9.56683 54.3397 9.55548L52.5122 7.71159C52.5009 7.70046 52.492 7.68718 52.4859 7.67252C52.4798 7.65787 52.4766 7.64212 52.4766 7.62622C52.4766 7.61032 52.4798 7.59459 52.4859 7.57993C52.492 7.56527 52.5009 7.55199 52.5122 7.54086L53.2525 6.79392L54.3397 5.69697C54.363 5.67597 54.3931 5.66437 54.4243 5.66437C54.4555 5.66437 54.4856 5.67597 54.5089 5.69697L56.3364 7.54086C56.3572 7.56434 56.3687 7.59473 56.3687 7.62622C56.3687 7.65772 56.3572 7.68811 56.3364 7.71159L54.5089 9.55548C54.4979 9.56683 54.4847 9.57586 54.4702 9.58202C54.4557 9.58818 54.4401 9.59135 54.4243 9.59135C54.4086 9.59135 54.3929 9.58818 54.3784 9.58202ZM98.8167 18.2581H102.146V2.96919L98.8167 6.33257V18.2581ZM35.7055 17.7858C35.704 18.0514 35.6428 18.3132 35.5262 18.5513C35.4097 18.7894 35.241 18.9976 35.0328 19.1602L32.7823 20.8931C32.7282 20.9341 32.6836 20.9864 32.6514 21.0464C32.6192 21.1065 32.6003 21.1728 32.5959 21.2409C32.5914 21.309 32.6017 21.3772 32.6258 21.441C32.6499 21.5047 32.6875 21.5624 32.7358 21.6102L35.1005 24.0004L36.6531 22.4382L36.8053 22.2803C38.192 20.8816 38.988 18.9955 39.0263 17.0175V9.09566L35.7055 12.6639V17.7858ZM43.9695 18.2581H40.6403V6.33257L43.9695 2.96919V18.2581ZM41.8252 -0.000366211L40.2304 1.70694H45.1122C45.4292 1.70617 45.7426 1.6403 46.0336 1.51335C46.3245 1.38641 46.5867 1.20104 46.8043 0.968529L47.7096 -0.000366211H41.8252ZM13.2696 14.5365C13.3075 14.4984 13.3292 14.4469 13.3303 14.3929L13.3345 10.321L16.6681 6.95759V14.5636C16.6866 15.0109 16.6129 15.4571 16.4518 15.8742C16.2906 16.2912 16.0454 16.67 15.7317 16.9865C15.418 17.303 15.0426 17.5504 14.6292 17.713C14.2159 17.8756 13.7736 17.95 13.3303 17.9313L11.3886 17.9611H4.0024C3.92851 17.9611 3.85534 17.9758 3.78708 18.0044C3.71882 18.0329 3.6568 18.0747 3.60455 18.1274C3.55231 18.1801 3.51086 18.2427 3.48259 18.3116C3.45431 18.3805 3.43976 18.4543 3.43976 18.5288V19.7026C3.44087 19.8528 3.5005 19.9965 3.60577 20.1028C3.71105 20.209 3.85352 20.2692 4.0024 20.2703H12.2981L12.222 20.4325L9.05343 23.3946H3.64705C2.70909 23.3946 1.80955 23.0187 1.14631 22.3495C0.483075 21.6803 0.110474 20.7727 0.110474 19.8264V19.0666V17.9398L3.43976 14.5636L9.97988 14.5978H13.1273C13.1808 14.5967 13.2318 14.5747 13.2696 14.5365ZM10.6555 9.58625C10.6665 9.59761 10.6797 9.60663 10.6942 9.61279C10.7087 9.61895 10.7243 9.62213 10.7401 9.62213C10.7558 9.62213 10.7714 9.61895 10.786 9.61279C10.8005 9.60663 10.8137 9.59761 10.8247 9.58625L12.6522 7.74237C12.6633 7.73161 12.6722 7.71869 12.6782 7.70439C12.6843 7.69008 12.6874 7.67469 12.6874 7.65914C12.6874 7.64358 12.6843 7.6282 12.6782 7.61389C12.6722 7.59959 12.6633 7.58667 12.6522 7.57591L10.8247 5.73202C10.8137 5.72066 10.8005 5.71165 10.786 5.70549C10.7714 5.69933 10.7558 5.69616 10.7401 5.69616C10.7243 5.69616 10.7087 5.69933 10.6942 5.70549C10.6797 5.71165 10.6665 5.72066 10.6555 5.73202L9.56827 6.82897L8.83219 7.57591C8.82048 7.58632 8.81111 7.59913 8.80469 7.61348C8.79827 7.62783 8.79495 7.64339 8.79495 7.65914C8.79495 7.67488 8.79827 7.69045 8.80469 7.7048C8.81111 7.71915 8.82048 7.73196 8.83219 7.74237L10.6555 9.58625ZM30.0611 10.3442C30.1364 10.3737 30.2043 10.4195 30.2603 10.4783L34.0549 14.8233L30.7764 17.9392C30.7084 18.0035 30.6281 18.0533 30.5405 18.0853C30.4528 18.1173 30.3596 18.1309 30.2665 18.1253C30.1735 18.1197 30.0825 18.095 29.9993 18.0527C29.916 18.0105 29.8421 17.9515 29.7822 17.8794L28.7416 16.5989C28.6948 16.6269 28.6495 16.6556 28.6044 16.684C28.5394 16.7252 28.4748 16.766 28.4074 16.8038C26.937 17.5591 25.3149 17.965 23.6651 17.9904H21.8165C21.3522 17.9904 20.8926 17.8981 20.4637 17.7187C20.0349 17.5393 19.6453 17.2764 19.3172 16.945C18.9892 16.6136 18.7291 16.2202 18.5518 15.7873C18.3745 15.3544 18.2836 14.8905 18.2841 14.4221V6.06489L21.6176 2.70151V14.4392C21.6176 14.4932 21.6383 14.5452 21.6753 14.5842C21.7124 14.6231 21.763 14.6461 21.8165 14.6483H23.6609H25.1288C25.4385 14.6474 25.7439 14.5745 26.0212 14.4353C26.2984 14.2962 26.5403 14.0945 26.7279 13.8459L29.4142 10.5337C29.4621 10.4681 29.5236 10.4139 29.5945 10.3748C29.6654 10.3357 29.7438 10.3127 29.8244 10.3074C29.905 10.3021 29.9858 10.3147 30.0611 10.3442Z" fill="#164193"/>
</svg>
