<svg width="96" height="28" viewBox="0 0 96 28" fill="none" xmlns="http://www.w3.org/2000/svg">
<path id="name" fill-rule="evenodd" clip-rule="evenodd" d="M89.6235 0.500244L87.9648 2.23863H93.0289C93.3576 2.23784 93.6828 2.17078 93.9846 2.04152C94.2864 1.91226 94.5584 1.72352 94.7842 1.48678L95.7277 0.500244H89.6235ZM62.1544 11.6196L64.6031 14.0447C65.011 14.4603 65.4987 14.7909 66.0376 15.017C66.5764 15.2432 67.1555 15.3603 67.7407 15.3615H86.7026V18.7818H67.7364C66.3904 18.7831 65.0667 18.4419 63.8922 17.7909L65.5027 19.3815L63.0453 21.8153C62.9954 21.8643 62.9356 21.9023 62.8698 21.9267C62.804 21.9511 62.7337 21.9614 62.6636 21.9569C62.5934 21.9524 62.5251 21.9332 62.463 21.9005C62.401 21.8678 62.3466 21.8225 62.3036 21.7674L60.5264 19.4554C60.362 19.2397 60.149 19.0649 59.9045 18.945C59.66 18.825 59.3906 18.7632 59.1177 18.7644H53.8518C53.37 18.7644 52.8929 18.6704 52.4478 18.4878C52.0027 18.3052 51.5983 18.0376 51.2577 17.7002C50.917 17.3629 50.6468 16.9623 50.4624 16.5215C50.278 16.0807 50.1831 15.6083 50.1831 15.1312V6.60441L53.6367 3.18413V15.1181C53.6367 15.1746 53.6594 15.2288 53.6997 15.2687C53.74 15.3086 53.7947 15.3311 53.8518 15.3311H58.1786C59.5212 15.3299 60.8417 15.6696 62.014 16.3176L59.7101 14.036L62.1544 11.6196ZM91.8484 19.0904H88.3904V6.94342L91.8484 3.52315V19.0904ZM44.9777 15.133C44.9783 15.1608 44.9732 15.1884 44.9629 15.2142C44.9526 15.24 44.9372 15.2635 44.9175 15.2834C44.8979 15.3032 44.8745 15.319 44.8487 15.3297C44.8228 15.3405 44.7951 15.346 44.767 15.346H38.4961C38.4681 15.346 38.4404 15.3405 38.4145 15.3297C38.3887 15.319 38.3653 15.3032 38.3456 15.2834C38.326 15.2635 38.3106 15.24 38.3003 15.2142C38.2899 15.1884 38.2849 15.1608 38.2855 15.133V10.3873L34.8275 13.8293V15.133C34.8287 16.0963 35.2156 17.0197 35.9033 17.7008C36.5911 18.382 37.5235 18.7651 38.4961 18.7663H44.7626C45.7353 18.7651 46.6677 18.382 47.3555 17.7008C48.0432 17.0197 48.4301 16.0963 48.4313 15.133V7.55369L44.9777 10.974V15.133ZM42.2443 10.2548C42.2292 10.2482 42.2156 10.2385 42.2045 10.2263L40.3132 8.35324C40.3015 8.34191 40.2922 8.32839 40.2859 8.31346C40.2796 8.29854 40.2763 8.28251 40.2763 8.26632C40.2763 8.25013 40.2796 8.23411 40.2859 8.21918C40.2922 8.20426 40.3015 8.19073 40.3132 8.1794L41.0767 7.41886L42.2045 6.30195C42.216 6.29038 42.2296 6.2812 42.2447 6.27493C42.2598 6.26866 42.2759 6.26543 42.2923 6.26543C42.3086 6.26543 42.3248 6.26866 42.3399 6.27493C42.355 6.2812 42.3686 6.29038 42.3801 6.30195L44.2758 8.1794C44.2875 8.19073 44.2968 8.20426 44.3031 8.21918C44.3094 8.23411 44.3127 8.25013 44.3127 8.26632C44.3127 8.28251 44.3094 8.29854 44.3031 8.31346C44.2968 8.32839 44.2875 8.34191 44.2758 8.35324L42.3801 10.2263C42.369 10.2385 42.3554 10.2482 42.3403 10.2548C42.3252 10.2614 42.3088 10.2649 42.2923 10.2649C42.2758 10.2649 42.2594 10.2614 42.2443 10.2548ZM28.2177 15.2121C28.229 15.1866 28.2348 15.159 28.2345 15.1312L28.2038 11.0069L31.4423 7.82127V15.1181C31.44 16.0806 31.0526 17.003 30.365 17.6831C29.6774 18.3633 28.7456 18.7459 27.7737 18.747H24.7458C24.1434 18.6731 23.5681 18.4553 23.0694 18.1125C22.5262 18.4839 21.8933 18.7058 21.2351 18.7557V18.7774H14.17C12.9514 18.7135 11.7646 18.3699 10.7032 17.7735L12.3137 19.3728L9.85188 21.8022C9.80242 21.8512 9.74297 21.8891 9.67752 21.9135C9.61207 21.9379 9.54211 21.9482 9.47233 21.9436C9.40255 21.9391 9.33455 21.9199 9.27286 21.8873C9.21118 21.8546 9.15724 21.8093 9.11464 21.7544L7.33299 19.4424C7.16859 19.2267 6.95567 19.0519 6.71115 18.932C6.46662 18.812 6.19723 18.7502 5.92435 18.7514H3.93645C3.90899 18.7513 3.88181 18.7568 3.85649 18.7673C3.83118 18.7778 3.80825 18.7933 3.78904 18.8127C3.76982 18.8321 3.75472 18.8552 3.74462 18.8805C3.73452 18.9057 3.72961 18.9328 3.7302 18.96V24.0969L0.298547 27.4998L0.272217 27.4737V18.9382C0.272217 17.9746 0.658732 17.0505 1.34673 16.3692C2.03473 15.6878 2.96786 15.305 3.94084 15.305H4.98525C6.32812 15.3059 7.64843 15.647 8.82063 16.2959L6.52116 14.0143L8.96544 11.5979L11.4141 14.023C11.8231 14.4362 12.3113 14.7644 12.8501 14.9883C13.3889 15.2122 13.9675 15.3272 14.5518 15.3267H20.6296V13.2624C20.6296 13.108 20.5676 12.9598 20.4573 12.8506C20.347 12.7414 20.1975 12.6801 20.0415 12.6801H14.2007L14.227 12.6583L14.1919 9.76391L20.8446 3.18413L20.8665 6.54356L17.1057 10.0203L19.199 9.89429C21.3975 9.89429 23.2406 11.4762 23.2406 13.6492V15.3311H28.0546C28.0762 15.3306 28.0974 15.3257 28.1171 15.3167C28.1367 15.3078 28.1542 15.2949 28.1687 15.2789C28.1896 15.2604 28.2063 15.2376 28.2177 15.2121ZM27.5962 20.665C27.5848 20.6534 27.5711 20.6442 27.5561 20.638C27.541 20.6317 27.5248 20.6285 27.5085 20.6285C27.4921 20.6285 27.4759 20.6317 27.4609 20.638C27.4458 20.6442 27.4321 20.6534 27.4207 20.665L26.2929 21.7819L25.525 22.5424C25.5127 22.5532 25.5031 22.5667 25.497 22.5818C25.4943 22.5884 25.4924 22.5952 25.4911 22.6022C25.4897 22.5954 25.4876 22.5888 25.4851 22.5824C25.479 22.5675 25.4701 22.5539 25.4587 22.5424L23.563 20.665C23.5515 20.6534 23.5379 20.6442 23.5228 20.638C23.5077 20.6317 23.4916 20.6285 23.4752 20.6285C23.4589 20.6285 23.4427 20.6317 23.4276 20.638C23.4125 20.6442 23.3989 20.6534 23.3874 20.665L22.2597 21.7819L21.4917 22.5424C21.4801 22.5534 21.471 22.5666 21.4647 22.5811C21.4584 22.5957 21.4552 22.6114 21.4552 22.6272C21.4552 22.643 21.4584 22.6587 21.4647 22.6733C21.471 22.6878 21.4801 22.701 21.4917 22.7119L23.3874 24.5894C23.3989 24.601 23.4125 24.6101 23.4276 24.6164C23.4427 24.6227 23.4589 24.6259 23.4752 24.6259C23.4916 24.6259 23.5077 24.6227 23.5228 24.6164C23.5379 24.6101 23.5515 24.601 23.563 24.5894L25.4587 22.7119C25.4754 22.6956 25.4867 22.6748 25.4914 22.6524C25.4927 22.66 25.495 22.6674 25.498 22.6746C25.5041 22.6889 25.5133 22.7016 25.525 22.7119L27.4207 24.5894C27.4321 24.601 27.4458 24.6101 27.4609 24.6164C27.4759 24.6227 27.4921 24.6259 27.5085 24.6259C27.5248 24.6259 27.541 24.6227 27.5561 24.6164C27.5711 24.6101 27.5848 24.601 27.5962 24.5894L29.492 22.7119C29.5133 22.6887 29.525 22.6585 29.525 22.6272C29.525 22.5959 29.5133 22.5656 29.492 22.5424L27.5962 20.665Z" fill="#164193"/>
</svg>
