<svg width="814" height="708" viewBox="0 0 814 708" fill="none" xmlns="http://www.w3.org/2000/svg">
<g style="mix-blend-mode:luminosity" opacity="0.2">
<rect width="93.8254" height="94.0249" rx="11.3353" transform="matrix(4.37114e-08 1 1 -4.37114e-08 0 614.175)" fill="#164194"/>
<rect width="93.8254" height="94.0249" rx="11.3353" transform="matrix(4.37114e-08 1 1 -4.37114e-08 302.567 197.931)" fill="#EDF2F5"/>
<rect width="93.8254" height="94.0249" rx="11.3353" transform="matrix(4.37114e-08 1 1 -4.37114e-08 511.126 197.931)" fill="#EDF2F5"/>
<rect width="93.8254" height="94.0249" rx="11.3353" transform="matrix(4.37114e-08 1 1 -4.37114e-08 94 301.994)" fill="#164194"/>
<rect width="93.8254" height="94.0249" rx="11.3353" transform="matrix(4.37114e-08 1 1 -4.37114e-08 511.126 510.112)" fill="#EDF2F5"/>
<rect width="93.8254" height="94.0249" rx="11.3353" transform="matrix(4.37114e-08 1 1 -4.37114e-08 719.693 510.112)" fill="#EDF2F5"/>
<rect width="93.8254" height="94.0249" rx="11.3353" transform="matrix(4.37114e-08 1 1 -4.37114e-08 719.693 301.994)" fill="#EDF2F5"/>
<rect width="93.8254" height="94.0249" rx="11.3353" transform="matrix(4.37114e-08 1 1 -4.37114e-08 198.282 301.994)" fill="#EDF2F5"/>
<rect width="93.8254" height="94.0249" rx="11.3353" transform="matrix(4.37114e-08 1 1 -4.37114e-08 406.844 301.994)" fill="#164194"/>
<rect opacity="0.5" width="93.8254" height="94.0249" rx="11.3353" transform="matrix(4.37114e-08 1 1 -4.37114e-08 406.845 0)" fill="#37C7F2"/>
<rect width="93.8254" height="94.0249" rx="11.3353" transform="matrix(4.37114e-08 1 1 -4.37114e-08 615.412 301.994)" fill="#EDF2F5"/>
<rect width="93.8254" height="94.0249" rx="11.3353" transform="matrix(4.37114e-08 1 1 -4.37114e-08 615.412 93.8694)" fill="#164194"/>
<rect width="93.8254" height="94.0249" rx="11.3353" transform="matrix(4.37114e-08 1 1 -4.37114e-08 198.282 406.052)" fill="#EDF2F5"/>
<rect width="93.8254" height="94.0249" rx="11.3353" transform="matrix(4.37114e-08 1 1 -4.37114e-08 406.844 406.052)" fill="#EDF2F5"/>
<rect width="93.8254" height="94.0249" rx="11.3353" transform="matrix(4.37114e-08 1 1 -4.37114e-08 406.844 197.931)" fill="#EDF2F5"/>
<rect opacity="0.5" width="93.8254" height="94.0249" rx="11.3353" transform="matrix(4.37114e-08 1 1 -4.37114e-08 615.412 614.175)" fill="#C4EFFB"/>
<rect width="93.8254" height="94.0249" rx="11.3353" transform="matrix(4.37114e-08 1 1 -4.37114e-08 615.412 406.052)" fill="#EDF2F5"/>
</g>
</svg>
