<svg width="124" height="24" viewBox="0 0 124 24" fill="none" xmlns="http://www.w3.org/2000/svg">
<path id="Union" fill-rule="evenodd" clip-rule="evenodd" d="M115.357 1.8562L117.128 0.000305176H123.624L122.612 1.05479C122.148 1.56094 121.473 1.8562 120.756 1.8562H115.357ZM90.5127 13.2863L87.8976 10.6712L85.2824 13.2863L87.7288 15.7327C86.5056 15.0578 85.0715 14.6782 83.6375 14.6782H79.0399C78.9134 14.6782 78.829 14.5939 78.829 14.4673V1.64484L75.1594 5.31443V14.4673C75.1594 16.6185 76.8888 18.39 79.0821 18.39H84.6919C85.2824 18.39 85.8308 18.6853 86.2104 19.1492L88.1085 21.6378C88.3194 21.8909 88.6568 21.9331 88.9099 21.68L91.525 19.0649L89.7956 17.3355C91.0188 18.0104 92.4107 18.39 93.887 18.39H114.049V14.7204H93.887C92.5795 14.6782 91.3984 14.1721 90.5127 13.2863ZM119.491 18.7279H115.822V5.65232L119.491 1.98273V18.7279ZM54.3648 14.678V18.3476H34.161C32.8956 18.3476 31.7146 18.8538 30.8288 19.7395L26.7374 23.9997L24.1223 21.3845L26.7374 18.6007L26.9894 18.3488H20.3692C19.6521 18.3488 18.9773 18.1379 18.4289 17.8004C17.8384 18.1379 17.2057 18.3488 16.4887 18.3488H11.7646C11.0476 18.3488 10.3727 17.9692 9.82437 17.6317C9.80051 17.6454 9.77658 17.6591 9.75257 17.6728C9.18259 17.9992 8.5722 18.3488 7.88413 18.3488H0.376221V14.8479H6.49221C6.91949 14.8479 7.05821 14.8479 7.10325 14.7829C7.1249 14.7517 7.1249 14.7055 7.1249 14.637V12.4437C7.1249 12.1062 6.82965 11.811 6.49221 11.811H1.93685L5.05812 8.60536H6.15478C8.47464 8.60536 10.3727 10.5034 10.3727 12.8233V14.4261V14.637H16.4887C16.6152 14.637 16.6996 14.5105 16.6996 14.4261V9.9551L18.4289 8.22574L20.1583 6.4964V14.4261C20.1583 14.5526 20.2848 14.7214 20.3692 14.7214H27.1179V18.2203L28.045 17.2932C28.199 17.1584 28.3442 17.0412 28.4727 16.9376L28.4727 16.9375C28.6256 16.8141 28.7547 16.71 28.8464 16.6183C29.0079 16.4568 29.3176 16.2459 29.7001 15.9856C29.8172 15.9059 29.9411 15.8215 30.0696 15.7325C31.2928 15.0577 32.6847 14.678 34.161 14.678H54.3648ZM69.423 14.6791C69.5495 14.6791 69.6339 14.5948 69.6339 14.4682H69.7182V9.95506L73.3878 6.28546V14.4261C73.3878 16.6194 71.6163 18.3487 69.4652 18.3487H64.7833H64.1084H62.8008C60.6075 18.3487 58.8782 16.5772 58.8782 14.4261V13.0341L62.5478 9.36455V14.4682C62.5478 14.5948 62.6321 14.6791 62.7587 14.6791H64.0662H64.7411H69.423ZM66.6813 9.19518C66.7235 9.23736 66.8078 9.23736 66.85 9.19518L68.8746 7.17057C68.9168 7.12839 68.9168 7.04404 68.8746 7.00186L66.85 4.97725C66.8078 4.93507 66.7235 4.93507 66.6813 4.97725L65.5003 6.15827L64.6989 6.95968C64.6567 7.00185 64.6567 7.08622 64.6989 7.1284L66.6813 9.19518ZM16.7004 1.98116C16.6582 1.93898 16.5739 1.93898 16.5317 1.98116L15.3507 3.16217L14.5493 3.96358L14.5493 3.96359C14.5071 4.00576 14.5071 4.00576 14.5071 4.04794C14.5071 4.09012 14.5071 4.1323 14.5493 4.1323L16.5739 6.1569C16.616 6.19908 16.7004 6.19908 16.7426 6.1569L18.7672 4.1323C18.8094 4.09012 18.8094 4.00576 18.7672 3.96358L16.7004 1.98116Z" fill="#14438F"/>
</svg>
