<svg width="122" height="24" viewBox="0 0 122 24" fill="none" xmlns="http://www.w3.org/2000/svg">
<path id="text" fill-rule="evenodd" clip-rule="evenodd" d="M114.392 1.65986L115.96 0.000366211L121.727 0.00451267L120.839 0.946277C120.626 1.17171 120.368 1.35125 120.083 1.47394C119.798 1.59663 119.49 1.65989 119.18 1.65986H114.392ZM89.9976 10.6036L92.3084 12.9268C92.6951 13.3213 93.1567 13.6346 93.666 13.8484C94.1754 14.0621 94.7224 14.1719 95.2748 14.1715H113.206V17.4407H95.2748C94.0017 17.4425 92.7497 17.1153 91.6405 16.4906L93.1589 18.0132L90.8398 20.3323C90.7926 20.3792 90.7361 20.4154 90.6739 20.4387C90.6117 20.4621 90.5452 20.4719 90.4789 20.4676C90.4126 20.4633 90.348 20.4449 90.2893 20.4137C90.2307 20.3825 90.1793 20.3392 90.1386 20.2867L88.4542 18.0837C88.2992 17.8771 88.0981 17.7094 87.8669 17.5942C87.6357 17.479 87.3808 17.4193 87.1225 17.4199H82.144C81.2241 17.4199 80.342 17.0545 79.6915 16.4041C79.0411 15.7536 78.6757 14.8714 78.6757 13.9516V5.82836L81.9407 2.55915V13.9433C81.9402 13.9701 81.945 13.9968 81.955 14.0217C81.9651 14.0467 81.98 14.0693 81.999 14.0883C82.018 14.1073 82.0406 14.1222 82.0655 14.1323C82.0905 14.1423 82.1171 14.1471 82.144 14.1466H86.2305C87.5015 14.1464 88.7514 14.4721 89.8607 15.0925L87.6867 12.9144L89.9976 10.6036ZM54.384 2.68524L51.119 5.95444V17.546H54.384V2.68524ZM118.065 17.7455H114.796V6.15396L118.065 2.8889V17.7455ZM58.2357 4.67726C58.2253 4.66634 58.2127 4.65765 58.1988 4.65171C58.1849 4.64578 58.1699 4.64272 58.1548 4.64272C58.1397 4.64272 58.1247 4.64578 58.1108 4.65171C58.0969 4.65765 58.0844 4.66634 58.0739 4.67726L57.0201 5.73103L56.3024 6.45706C56.2908 6.46756 56.2816 6.48037 56.2753 6.49466C56.2689 6.50895 56.2657 6.52441 56.2657 6.54003C56.2657 6.55567 56.2689 6.57112 56.2753 6.58541C56.2816 6.5997 56.2908 6.61251 56.3024 6.62301L58.0739 8.39452C58.0844 8.40544 58.0969 8.41413 58.1108 8.42006C58.1247 8.426 58.1397 8.42906 58.1548 8.42906C58.1699 8.42906 58.1849 8.426 58.1988 8.42006C58.2127 8.41413 58.2253 8.40544 58.2357 8.39452L60.0072 6.62301C60.0183 6.61219 60.027 6.59929 60.033 6.58504C60.039 6.57079 60.0421 6.55549 60.0421 6.54003C60.0421 6.52458 60.039 6.50929 60.033 6.49504C60.027 6.48079 60.0183 6.46788 60.0072 6.45706L58.2357 4.67726ZM56.816 18.0102C56.8162 18.2654 56.7575 18.5171 56.6446 18.746C56.5316 18.9748 56.3674 19.1745 56.1647 19.3295L53.9824 20.989C53.9296 21.028 53.8859 21.0781 53.8544 21.1357C53.8229 21.1934 53.8043 21.2572 53.8 21.3227C53.7956 21.3883 53.8056 21.454 53.8293 21.5153C53.8529 21.5766 53.8896 21.632 53.9368 21.6777L56.231 23.9802L57.737 22.4742L57.8864 22.3249C58.3664 21.8409 58.7781 21.2938 59.1103 20.6986C59.6986 19.6477 60.0179 18.4676 60.0396 17.2634V9.08625L56.816 12.509V18.0102ZM73.7561 13.9525C73.7566 13.979 73.7519 14.0053 73.7421 14.0299C73.7323 14.0546 73.7178 14.077 73.6992 14.096C73.6807 14.1149 73.6585 14.1299 73.6341 14.1402C73.6097 14.1505 73.5834 14.1558 73.5569 14.1557H67.6325C67.5793 14.1547 67.5287 14.1328 67.4914 14.0948C67.4542 14.0568 67.4334 14.0057 67.4334 13.9525V9.43448L64.1683 12.7037V13.9483C64.1678 14.4036 64.257 14.8545 64.4308 15.2753C64.6047 15.6961 64.8598 16.0784 65.1815 16.4006C65.5032 16.7227 65.8853 16.9782 66.3059 17.1526C66.7264 17.3269 67.1772 17.4167 67.6325 17.4167H73.5569C74.4768 17.4167 75.359 17.0512 76.0094 16.4008C76.6598 15.7504 77.0253 14.8682 77.0253 13.9483V6.72951L73.7561 9.99457V13.9525ZM9.86483 13.3302L13.1299 10.0609V14.1723H28.8163V17.4415H15.922C15.2269 17.5081 14.5256 17.4202 13.8684 17.1843L13.1299 17.0059V17.2797C13.1288 18.1982 12.7635 19.0787 12.114 19.7281C11.4646 20.3775 10.5841 20.7428 9.66569 20.7439H3.74129C2.82215 20.7439 1.94059 20.3791 1.29027 19.7296C0.639948 19.08 0.274049 18.1989 0.272949 17.2797V16.0351L3.54215 12.7701V17.288C3.54159 17.3144 3.54635 17.3405 3.55616 17.3649C3.56597 17.3893 3.58061 17.4115 3.59922 17.4301C3.61783 17.4487 3.64 17.4634 3.66442 17.4732C3.68884 17.483 3.71499 17.4877 3.74129 17.4872H9.66569C9.7185 17.4872 9.76916 17.4662 9.8065 17.4289C9.84385 17.3915 9.86483 17.3409 9.86483 17.288V13.3302ZM71.1338 9.28642C71.1446 9.29746 71.1575 9.30622 71.1718 9.31221C71.186 9.3182 71.2013 9.32128 71.2168 9.32128C71.2322 9.32128 71.2475 9.3182 71.2618 9.31221C71.276 9.30622 71.2889 9.29746 71.2998 9.28642L73.0837 7.49416C73.0948 7.48335 73.1035 7.47043 73.1095 7.45619C73.1155 7.44194 73.1186 7.42664 73.1186 7.41119C73.1186 7.39573 73.1155 7.38043 73.1095 7.36619C73.1035 7.35194 73.0948 7.33903 73.0837 7.32822L71.2915 5.53596C71.2686 5.51555 71.2391 5.50427 71.2085 5.50427C71.1779 5.50427 71.1483 5.51555 71.1255 5.53596L70.0593 6.60219L69.3499 7.32822C69.3388 7.33903 69.33 7.35194 69.3241 7.36619C69.3181 7.38043 69.315 7.39573 69.315 7.41119C69.315 7.42664 69.3181 7.44194 69.3241 7.45619C69.33 7.47043 69.3388 7.48335 69.3499 7.49416L71.1338 9.28642ZM45.1378 8.97289L43.1589 9.09734L46.7144 5.77836L46.6812 2.56724L40.4083 8.84842L40.4373 11.6073V11.6281H45.9551C46.1037 11.6281 46.2461 11.6871 46.3512 11.7921C46.4562 11.8972 46.5152 12.0396 46.5152 12.1882V14.1547H35.0606V9.0932L31.8328 12.5118V18.013C31.834 18.2707 31.7759 18.5252 31.6629 18.7569C31.55 18.9885 31.3852 19.1911 31.1815 19.3489L28.9993 21.0084C28.9463 21.0478 28.9026 21.0983 28.8711 21.1563C28.8395 21.2143 28.821 21.2784 28.8166 21.3443C28.8123 21.4101 28.8223 21.4761 28.8459 21.5378C28.8696 21.5994 28.9063 21.6552 28.9536 21.7012L31.2479 23.9996L32.7539 22.4978L32.9032 22.3443C33.3864 21.8631 33.7985 21.3154 34.1271 20.718C34.7158 19.667 35.0364 18.4872 35.0606 17.2828V16.9675C35.8784 17.2629 36.7386 17.424 37.6079 17.4446H47.0712V17.4239C47.5634 17.3987 48.0277 17.1877 48.3704 16.8335C48.713 16.4793 48.9085 16.0082 48.9173 15.5154C48.9173 15.3591 48.9222 15.1849 48.9277 14.991V14.9908C48.9345 14.7472 48.9422 14.4724 48.9422 14.163V12.5532C48.9588 10.483 47.2164 8.97289 45.1378 8.97289ZM46.0428 1.19652L46.5199 1.66947L40.4088 7.78056L40.4005 6.83465L46.0428 1.19652Z" fill="#164193"/>
</svg>
