<svg width="141" height="56" viewBox="0 0 141 56" fill="none" xmlns="http://www.w3.org/2000/svg">
<g id="logo" clip-path="url(#clip0_630_96336)">
<g id="Group 161">
<g id="Group 160">
<g id="Group 159">
<path id="Path 601" d="M140.999 55.319L112.64 33.404L106.397 28.579L87.813 36.792L109.058 0L131.268 38.461L140.999 55.319Z" fill="#0075BF"/>
<path id="Path 602" d="M141 55.3179L125.139 52.0809L109.055 42.2059L92.9809 52.0819L77.1219 55.3179L87.8129 36.7899L106.397 28.5769L112.64 33.4019L141 55.3179Z" fill="#00B1EB"/>
<path id="Path 603" d="M131.268 38.461L114.71 32.13L112.64 33.404L77.1219 55.319L87.8129 36.792L109.055 0L131.268 38.461Z" fill="url(#paint0_linear_630_96336)"/>
</g>
</g>
</g>
<g id="Group 162">
<path id="Path 604" d="M14.304 48.791L13.173 49.134L13.575 50.679C13.6477 50.8764 13.6623 51.0906 13.617 51.296C13.5932 51.3692 13.5533 51.4362 13.5001 51.4919C13.447 51.5477 13.382 51.5908 13.31 51.618C13.1187 51.6911 12.9146 51.7251 12.71 51.718H7.89997C7.55184 51.7137 7.20531 51.6701 6.86697 51.588C6.49097 51.502 5.87764 51.3353 5.02698 51.088C5.01052 51.0811 4.99344 51.0757 4.97598 51.072C4.95833 51.0708 4.94062 51.0708 4.92297 51.072L4.55997 52.327C4.65997 52.355 4.75998 52.384 4.85998 52.416C4.95998 52.448 5.04797 52.48 5.14597 52.516L5.47697 52.616C5.53597 52.637 5.60297 52.658 5.65797 52.68C5.96597 52.801 6.12997 52.914 6.15097 53.017C6.17147 53.1051 6.1738 53.1965 6.15781 53.2856C6.14182 53.3746 6.10785 53.4595 6.05798 53.535C5.92865 53.6893 5.76004 53.8057 5.56998 53.872C5.24277 53.9936 4.90636 54.089 4.56397 54.157C4.52538 54.1697 4.48595 54.1797 4.44598 54.187L4.33698 54.208C3.82277 54.3683 3.26632 54.3217 2.78597 54.078C2.59048 53.9468 2.42951 53.7704 2.3167 53.5638C2.2039 53.3572 2.14259 53.1264 2.13798 52.891C2.10542 52.1882 2.2294 51.487 2.50098 50.838L1.38097 50.392C0.999788 51.3238 0.872459 52.34 1.01197 53.337C1.06129 53.7177 1.1926 54.0833 1.39684 54.4083C1.60107 54.7334 1.87337 55.0103 2.19498 55.22C2.55635 55.4237 2.95455 55.5537 3.36652 55.6025C3.77848 55.6512 4.19603 55.6178 4.59497 55.504C4.64997 55.491 4.70397 55.478 4.75697 55.463C4.80997 55.448 4.85697 55.436 4.89697 55.421C5.39888 55.3131 5.88369 55.1371 6.33797 54.898C6.67331 54.7176 6.94885 54.4434 7.13097 54.109C7.29518 53.7714 7.36102 53.3943 7.32098 53.021C7.46698 53.034 7.62097 53.041 7.79997 53.043H12.721C13.1633 53.0541 13.5999 52.9408 13.981 52.716C14.3314 52.5055 14.5971 52.1789 14.732 51.793C14.8782 51.3438 14.882 50.8605 14.743 50.409L14.304 48.791Z" fill="#0081E0"/>
<path id="Path 605" d="M17.0839 45.8779L15.9019 45.9299L15.8889 53.0749H17.0719L17.0839 45.8779Z" fill="#0081E0"/>
<path id="Path 606" d="M19.666 49.7141L18.504 49.8911L18.899 52.8671C18.9494 53.1026 18.9165 53.3482 18.806 53.5621C18.679 53.7443 18.4998 53.8837 18.292 53.9621C17.9367 54.1035 17.5714 54.2182 17.199 54.3051L17.012 54.3521C16.942 54.3691 16.877 54.3881 16.812 54.4081L17.112 55.6841C17.181 55.6641 17.253 55.6421 17.329 55.6221C17.405 55.6021 17.475 55.5841 17.537 55.5701C18.0779 55.4367 18.599 55.233 19.087 54.9641C19.4433 54.7617 19.732 54.4588 19.917 54.0931C20.1032 53.6569 20.1554 53.1751 20.067 52.7091L19.666 49.7141Z" fill="#0081E0"/>
<path id="Path 607" d="M21.396 53.075H22.579L22.59 45.875L21.408 45.927L21.396 53.075Z" fill="#0081E0"/>
<path id="Path 608" d="M27.645 49.2061C27.2878 48.6045 26.8931 48.026 26.463 47.4741L25.54 48.2741C25.906 48.7648 26.2413 49.2625 26.546 49.7671C26.8022 50.1739 27.0175 50.605 27.189 51.0541C27.2226 51.1319 27.236 51.2169 27.2278 51.3012C27.2195 51.3855 27.19 51.4663 27.142 51.5361C27.0487 51.6568 26.8393 51.7171 26.514 51.7171H25.301C25.1746 51.7235 25.0481 51.7062 24.928 51.6661C24.8869 51.6492 24.8509 51.6219 24.8235 51.5868C24.7961 51.5517 24.7784 51.5101 24.772 51.4661V51.4451C24.765 51.3831 24.759 51.3131 24.756 51.2331C24.753 51.1531 24.75 51.0751 24.75 50.9991H23.661C23.661 51.1231 23.661 51.2471 23.667 51.3681C23.673 51.4891 23.675 51.5911 23.683 51.6741C23.6942 51.924 23.781 52.1646 23.932 52.3641C24.0973 52.5785 24.3154 52.7463 24.565 52.8511C24.8629 52.978 25.1843 53.04 25.508 53.0331H26.348C26.7975 53.0541 27.2437 52.9462 27.634 52.7221C27.9452 52.5316 28.1801 52.2384 28.298 51.8931C28.4162 51.523 28.4269 51.127 28.329 50.7511C28.1775 50.2055 27.9471 49.685 27.645 49.2061Z" fill="#0081E0"/>
<path id="Path 609" d="M45.314 50.399L44.878 48.791L43.747 49.134L44.152 50.679C44.2243 50.8765 44.2389 51.0905 44.194 51.296C44.1702 51.3692 44.1303 51.4362 44.0771 51.4919C44.024 51.5477 43.959 51.5908 43.887 51.618C43.6957 51.6911 43.4916 51.7251 43.287 51.718H41.443C41.295 51.7254 41.147 51.7043 41.007 51.656C40.9133 51.6186 40.8372 51.5471 40.794 51.456C40.7403 51.3257 40.7101 51.1869 40.705 51.046L40.591 49.77L39.409 49.884L39.524 51.16C39.5402 51.2367 39.5362 51.3163 39.5123 51.391C39.4885 51.4657 39.4456 51.5329 39.388 51.586C39.2072 51.6931 38.9971 51.74 38.788 51.72C38.788 51.72 33.909 51.666 33.747 51.643C33.6072 51.6239 33.4698 51.5904 33.337 51.543C33.337 51.536 33.337 51.532 33.327 51.532C33.2516 51.5069 33.182 51.4668 33.1224 51.4142C33.0628 51.3617 33.0144 51.2977 32.98 51.226C32.9344 51.0538 32.94 50.8721 32.996 50.703L33.396 49.147L32.254 48.816L31.871 50.309C31.7237 50.7944 31.7363 51.3143 31.907 51.792C31.9902 52.007 32.1176 52.202 32.2811 52.3645C32.4446 52.5269 32.6405 52.6532 32.856 52.735L32.866 52.746C33.0705 52.8388 33.2869 52.9031 33.509 52.937C33.8338 52.9826 34.161 53.0083 34.489 53.014C34.908 53.029 38.789 53.036 38.789 53.036C39.1606 53.0447 39.5284 52.959 39.858 52.787C39.9541 52.7296 40.0443 52.6625 40.127 52.587C40.4654 52.8747 40.8968 53.0297 41.341 53.023V53.039H43.289C43.7313 53.0501 44.1679 52.9368 44.549 52.712C44.8994 52.5014 45.1651 52.1749 45.3 51.789C45.4485 51.3383 45.4534 50.8526 45.314 50.399Z" fill="#0081E0"/>
<path id="Path 610" d="M54.927 48.791L53.796 49.134L54.201 50.679C54.2734 50.8765 54.2876 51.0906 54.242 51.296C54.2184 51.3692 54.1787 51.4362 54.1257 51.4919C54.0727 51.5477 54.0079 51.5908 53.936 51.618C53.7447 51.6911 53.5407 51.7251 53.336 51.718H48.445C48.3165 51.7278 48.1891 51.6889 48.088 51.609C47.9853 51.4883 47.9191 51.3409 47.897 51.184C47.876 51.093 47.852 50.963 47.827 50.819L47.678 49.719L46.516 49.896L46.911 52.872C46.9614 53.1075 46.9285 53.3531 46.818 53.567C46.691 53.7492 46.5118 53.8886 46.304 53.967C45.9487 54.1084 45.5834 54.2231 45.211 54.31L45.024 54.357C44.954 54.374 44.889 54.393 44.824 54.413L45.124 55.689C45.193 55.669 45.265 55.647 45.341 55.627C45.417 55.607 45.487 55.589 45.548 55.575C46.0889 55.4417 46.61 55.2379 47.098 54.969C47.4543 54.7666 47.743 54.4637 47.928 54.098C48.0731 53.7479 48.1271 53.3667 48.085 52.99C48.1921 53.0139 48.3013 53.0279 48.411 53.032H53.332C53.7743 53.0432 54.2109 52.9299 54.592 52.705C54.9427 52.4946 55.2087 52.168 55.344 51.782C55.4904 51.3329 55.4943 50.8494 55.355 50.398L54.927 48.791Z" fill="#0081E0"/>
<path id="Path 611" d="M68.5969 49.8591C68.4355 49.5091 68.1645 49.2213 67.8249 49.0391C67.561 48.8908 67.2615 48.8175 66.9589 48.8271C66.6604 48.8369 66.3708 48.9304 66.1229 49.0971C65.8675 49.268 65.6608 49.5023 65.5229 49.7771L64.7769 51.2281C64.6906 51.3761 64.5672 51.4992 64.4189 51.5851C64.2559 51.6758 64.0714 51.7207 63.8849 51.7151H61.6709C61.5503 51.7225 61.431 51.687 61.3339 51.6151C61.2439 51.5327 61.1753 51.4298 61.1339 51.3151C61.0637 51.136 61.005 50.9526 60.9579 50.7661L60.9479 50.7441L60.1479 47.6741L58.9969 48.0171L59.7969 51.0461C59.8332 51.1229 59.8485 51.2079 59.8413 51.2926C59.8341 51.3772 59.8046 51.4585 59.7559 51.5281C59.6707 51.6005 59.5711 51.654 59.4638 51.6852C59.3564 51.7164 59.2437 51.7245 59.1329 51.7091H58.0329C57.9065 51.7155 57.78 51.6982 57.6599 51.6581C57.6188 51.6411 57.5829 51.6137 57.5555 51.5787C57.5282 51.5436 57.5104 51.5021 57.5039 51.4581V51.4371C57.4969 51.3751 57.4919 51.3051 57.4879 51.2251C57.4839 51.1451 57.4829 51.0671 57.4829 50.9911H56.3939C56.3939 51.1151 56.3939 51.2391 56.3989 51.3601C56.4039 51.4811 56.4069 51.5831 56.4149 51.6661C56.4264 51.9159 56.5132 52.1565 56.6639 52.3561C56.8292 52.5705 57.0473 52.7383 57.2969 52.8431C57.5948 52.97 57.9162 53.032 58.2399 53.0251H58.9759C59.4205 53.0437 59.8612 52.9359 60.2469 52.7141C60.3322 52.6522 60.4115 52.5825 60.4839 52.5061C60.5763 52.6098 60.6807 52.7021 60.7949 52.7811C61.0554 52.9503 61.3615 53.0355 61.6719 53.0251H63.8859C64.2812 53.0303 64.6693 52.9182 65.0009 52.7031C65.1684 52.592 65.319 52.4572 65.4479 52.3031L66.6649 52.9271C66.8758 53.0397 67.1137 53.0921 67.3524 53.0783C67.5911 53.0646 67.8214 52.9852 68.0179 52.8491C68.2144 52.7148 68.3758 52.5354 68.4889 52.3261C68.6944 51.9346 68.8115 51.5027 68.8319 51.0611C68.8555 50.647 68.7747 50.2337 68.5969 49.8591ZM67.7779 51.1591C67.7423 51.393 67.6633 51.6182 67.5449 51.8231C67.5322 51.8484 67.5149 51.8711 67.4939 51.8901C67.484 51.8986 67.4723 51.9049 67.4597 51.9083C67.4471 51.9118 67.4338 51.9124 67.4209 51.9101C67.3873 51.9053 67.3551 51.893 67.3269 51.8741L66.0749 51.2371L66.3839 50.6371C66.4495 50.4869 66.5487 50.3538 66.6739 50.2481C66.7772 50.1651 66.9008 50.1113 67.0319 50.0921C67.1596 50.075 67.2892 50.1026 67.3989 50.1701C67.5583 50.2519 67.6793 50.393 67.7359 50.5631C67.7966 50.7543 67.811 50.9572 67.7779 51.1551V51.1591Z" fill="#0081E0"/>
<path id="Path 612" d="M35.3919 49.486L35.7919 49.086L36.0999 48.778C36.1789 48.858 36.2749 48.954 36.3999 49.086C36.5799 49.27 36.7149 49.402 36.7999 49.486L37.1999 49.086C37.3819 48.902 37.5159 48.77 37.5999 48.686C37.5169 48.602 37.3839 48.47 37.1999 48.286L36.7999 47.886C36.7106 47.9687 36.5773 48.102 36.3999 48.286C36.2709 48.419 36.1749 48.515 36.0999 48.595L35.7919 48.286L35.3919 47.886C35.3026 47.9687 35.1693 48.102 34.9919 48.286C34.8119 48.47 34.6799 48.602 34.5969 48.686C34.6799 48.769 34.8119 48.901 34.9919 49.086C35.1719 49.271 35.3029 49.403 35.3919 49.486Z" fill="#0081E0"/>
<path id="Path 613" d="M43.04 53.7451C42.95 53.8281 42.816 53.9611 42.64 54.1451C42.511 54.2781 42.415 54.3741 42.34 54.4541L42.032 54.1451L41.632 53.7451C41.5427 53.8278 41.4093 53.9611 41.232 54.1451C41.053 54.3291 40.921 54.4611 40.838 54.5451C40.921 54.6281 41.053 54.7601 41.232 54.9451C41.411 55.1301 41.547 55.2611 41.632 55.3451L42.032 54.9451L42.34 54.6361C42.419 54.7161 42.515 54.8121 42.64 54.9451C42.821 55.1291 42.955 55.2611 43.04 55.3451L43.44 54.9451C43.623 54.7611 43.756 54.6291 43.84 54.5451C43.757 54.4611 43.624 54.3291 43.44 54.1451L43.04 53.7451Z" fill="#0081E0"/>
<path id="Path 614" d="M11.7009 53.7451C11.6116 53.8278 11.4783 53.9611 11.3009 54.1451C11.1719 54.2781 11.0759 54.3741 11.0009 54.4541L10.6929 54.1451L10.2929 53.7451C10.2036 53.8278 10.0703 53.9611 9.89292 54.1451C9.71392 54.3291 9.58192 54.4611 9.49792 54.5451C9.58092 54.6281 9.71292 54.7601 9.89292 54.9451C10.0729 55.1301 10.2079 55.2611 10.2929 55.3451L10.6929 54.9451C10.8239 54.8121 10.9209 54.7161 11.0009 54.6361C11.0809 54.7161 11.1759 54.8121 11.3009 54.9451C11.4809 55.1291 11.6159 55.2611 11.7009 55.3451L12.1009 54.9451C12.2839 54.7611 12.4169 54.6291 12.5009 54.5451L12.1009 54.1451L11.7009 53.7451Z" fill="#0081E0"/>
<path id="Path 615" d="M52.222 53.7451C52.132 53.8281 51.998 53.9611 51.822 54.1451C51.693 54.2781 51.597 54.3741 51.522 54.4541L51.214 54.1451L50.814 53.7451C50.7247 53.8278 50.5914 53.9611 50.414 54.1451C50.235 54.3291 50.103 54.4611 50.02 54.5451C50.103 54.6281 50.235 54.7601 50.414 54.9451C50.593 55.1301 50.729 55.2611 50.814 55.3451L51.214 54.9451L51.522 54.6361C51.601 54.7161 51.697 54.8121 51.822 54.9451C52.003 55.1291 52.137 55.2611 52.222 55.3451L52.622 54.9451C52.805 54.7611 52.938 54.6291 53.022 54.5451C52.939 54.4611 52.806 54.3291 52.622 54.1451L52.222 53.7451Z" fill="#0081E0"/>
</g>
<g id="Group 163">
<path id="Path 616" d="M64.699 38.9019H68.834V20.0959L64.699 24.2309V38.9019Z" fill="#164194"/>
<path id="Path 617" d="M36.566 32.8039L33.64 29.8739L30.716 32.7969L33.469 35.5529C32.0648 34.7691 30.4832 34.3577 28.875 34.3579H23.696C23.6626 34.3582 23.6294 34.3518 23.5984 34.3391C23.5674 34.3265 23.5392 34.3078 23.5155 34.2841C23.4918 34.2605 23.473 34.2324 23.4602 34.2015C23.4474 34.1705 23.4409 34.1374 23.441 34.1039V19.6819L19.306 23.8189V34.1039C19.3062 34.6803 19.4198 35.251 19.6405 35.7834C19.8612 36.3159 20.1846 36.7996 20.5922 37.2071C20.9999 37.6145 21.4838 37.9377 22.0164 38.1582C22.5489 38.3786 23.1197 38.492 23.696 38.4919H30.022C30.3486 38.492 30.6707 38.5675 30.9633 38.7125C31.2559 38.8575 31.5111 39.0681 31.709 39.3279L33.837 42.1179C33.8882 42.1849 33.9531 42.2402 34.0273 42.28C34.1016 42.3199 34.1835 42.3434 34.2676 42.349C34.3517 42.3546 34.4361 42.3421 34.515 42.3124C34.5938 42.2828 34.6655 42.2365 34.725 42.1769L37.663 39.2389L35.74 37.3129L35.716 37.2919C37.121 38.08 38.7051 38.4933 40.316 38.4919H63.016V34.3589H40.316C39.6192 34.3603 38.929 34.2236 38.2854 33.9567C37.6417 33.6898 37.0573 33.298 36.566 32.8039Z" fill="#164194"/>
<path id="Path 618" d="M13.081 34.104C13.0811 34.1374 13.0746 34.1704 13.0619 34.2013C13.0492 34.2322 13.0305 34.2602 13.0069 34.2839C12.9833 34.3075 12.9552 34.3262 12.9244 34.3389C12.8935 34.3516 12.8604 34.3581 12.827 34.358H5.33199C5.2986 34.3581 5.26551 34.3516 5.23463 34.3389C5.20376 34.3262 5.1757 34.3075 5.15209 34.2839C5.12848 34.2602 5.10978 34.2322 5.09706 34.2013C5.08434 34.1704 5.07786 34.1374 5.078 34.104V28.384L0.942993 32.519V34.104C0.943788 35.2677 1.40645 36.3836 2.22938 37.2066C3.0523 38.0295 4.1682 38.4922 5.33199 38.493H12.827C13.9907 38.4919 15.1065 38.0292 15.9293 37.2063C16.7522 36.3834 17.2149 35.2677 17.216 34.104V24.96L13.081 29.095V34.104Z" fill="#164194"/>
<path id="Path 619" d="M9.76404 28.1929C9.77764 28.2068 9.7939 28.2179 9.81184 28.2255C9.82979 28.233 9.84907 28.2369 9.86854 28.2369C9.88802 28.2369 9.9073 28.233 9.92524 28.2255C9.94319 28.2179 9.95944 28.2068 9.97304 28.1929L12.241 25.9259C12.2682 25.8979 12.2834 25.8604 12.2834 25.8214C12.2834 25.7824 12.2682 25.7449 12.241 25.7169L9.97304 23.4489C9.94505 23.4217 9.90756 23.4065 9.86854 23.4065C9.82952 23.4065 9.79204 23.4217 9.76404 23.4489L8.41504 24.7979L7.49704 25.7159C7.4831 25.7295 7.47203 25.7457 7.46446 25.7637C7.4569 25.7816 7.453 25.8009 7.453 25.8204C7.453 25.8399 7.4569 25.8591 7.46446 25.8771C7.47203 25.895 7.4831 25.9113 7.49704 25.9249L9.76404 28.1929Z" fill="#164194"/>
<path id="Path 620" d="M66.1719 16.4399L64.1899 18.5399H70.2449C70.6393 18.5397 71.0294 18.4591 71.3915 18.303C71.7536 18.1468 72.0801 17.9185 72.3509 17.6319L73.4759 16.4399H66.1719Z" fill="#164194"/>
</g>
</g>
<defs>
<linearGradient id="paint0_linear_630_96336" x1="72.2488" y1="46.9105" x2="120.66" y2="20.1398" gradientUnits="userSpaceOnUse">
<stop stop-color="#0075BF" stop-opacity="0"/>
<stop offset="0.865" stop-color="#164194"/>
<stop offset="1" stop-color="#14387F"/>
</linearGradient>
<clipPath id="clip0_630_96336">
<rect width="140.057" height="55.687" fill="white" transform="translate(0.942993)"/>
</clipPath>
</defs>
</svg>
